<?xml version="1.0" standalone="no"?>
<!DOCTYPE svg PUBLIC "-//W3C//DTD SVG 1.1//EN" "http://www.w3.org/Graphics/SVG/1.1/DTD/svg11.dtd" >
<!--
2013-9-30: Created.
-->
<svg>
<metadata>
Created by iconfont
</metadata>
<defs>

<font id="iconfont" horiz-adv-x="1024" >
  <font-face
    font-family="iconfont"
    font-weight="500"
    font-stretch="normal"
    units-per-em="1024"
    ascent="896"
    descent="-128"
  />
    <missing-glyph />
    
    <glyph glyph-name="chat-dot-square" unicode="&#58965;" d="M274.016 160h526.016q27.008 0.992 44.992 19.008T864.032 224V640q-0.992 27.008-19.008 44.992T800.032 704h-576q-27.008-0.992-44.992-19.008T160.032 640v-571.008z m21.984-64l-148-118.016q-16-12-33.504-3.488T96 3.008V640q0.992 54.016 37.504 90.496T224 768h576q54.016-0.992 90.496-37.504T928 640v-416q-0.992-54.016-37.504-90.496T800 96H296zM512 396.992q-22.016 0-36.512 14.496T460.992 448t14.496 36.512T512 499.008t36.512-14.496 14.496-36.512-14.496-36.512-36.512-14.496z m192 0q-22.016 0-36.512 14.496T652.992 448t14.496 36.512T704 499.008t36.512-14.496 14.496-36.512-14.496-36.512-36.512-14.496z m-384 0q-22.016 0-36.512 14.496T268.992 448t14.496 36.512T320 499.008t36.512-14.496 14.496-36.512-14.496-36.512-36.512-14.496z"  horiz-adv-x="1024" />

    
    <glyph glyph-name="service" unicode="&#59094;" d="M864 485.984q50.016-28.992 75.488-79.008t19.008-107.488-42.016-100.992-90.496-61.504q-20.992-90.016-89.504-144.512t-160.512-56.512h-96q-14.016 0-23.008 8.992t-8.992 23.008 8.992 23.008 23.008 8.992h96q62.016 0.992 111.008 35.488t70.016 92.512H736q-14.016 0-23.008 8.992T704 159.968v320q0 14.016 8.992 23.008t23.008 8.992h32q16 0 31.008-2.016-14.016 112-93.504 184T512 767.968q-114.016-2.016-193.504-74.016t-93.504-184q15.008 2.016 31.008 2.016h32q14.016 0 23.008-8.992t8.992-23.008v-320q0-14.016-8.992-23.008T288 127.968H256q-67.008 0.992-116.992 39.488t-67.488 103.008 7.008 123.008 81.504 92.512q4 150.016 103.008 249.504t248.992 102.496q150.016-3.008 248.992-102.496t103.008-249.504zM256 448q-54.016-0.992-90.496-37.504T128 320q0.992-54.016 37.504-90.496T256 192v256z m640-128q-0.992 54.016-37.504 90.496T768 448v-256q54.016 0.992 90.496 37.504T896 320z"  horiz-adv-x="1024" />

    
    <glyph glyph-name="back" unicode="&#58934;" d="M224 416h640q14.016 0 23.008-8.992T896 384t-8.992-23.008T864 352H224q-14.016 0-23.008 8.992T192 384t8.992 23.008T224 416z m12.992-32l266.016-264.992Q512 108.992 512 96t-9.504-22.496T480 64t-23.008 8.992l-288 288Q160 371.008 160 384t8.992 23.008l288 288Q467.008 704 480 704t22.496-9.504T512 672t-8.992-23.008z"  horiz-adv-x="1024" />

    
    <glyph glyph-name="arrow-left" unicode="&#58935;" d="M608.992 747.008L277.984 406.016q-8.992-8.992-8.992-21.504t8.992-22.496l331.008-340.992q8.992-8 20.992-8t20.992 8.992 8.992 20.992-8.992 20.992l-312 320 312 320q8.992 8.992 8.992 20.992t-8.992 20.992-20.992 8.992-20.992-8z"  horiz-adv-x="1024" />

    
    <glyph glyph-name="arrow-right" unicode="&#58937;" d="M340.992 747.008q-8.992-10.016-8.992-22.016t8.992-20.992l312-320-312-320q-8.992-8.992-8.992-20.992t8.992-20.992 20.992-8.992 20.992 8l331.008 340.992q8.992 8.992 8.992 22.016t-8.992 22.016L382.976 747.04q-8.992 8-20.992 8t-20.992-8z"  horiz-adv-x="1024" />

    
    <glyph glyph-name="arrow-up" unicode="&#58938;" d="M488.992 552L148.992 195.008q-8.992-10.016-8.992-22.016t8.992-22.016v-0.992q8.992-8.992 21.504-8.992T192 149.984l320 336 320-336q8.992-8.992 21.504-8.992t21.504 8.992v0.992q8.992 10.016 8.992 22.016t-8.992 22.016L535.008 552q-8.992 8.992-23.008 8.992t-23.008-8.992z"  horiz-adv-x="1024" />

    
    <glyph glyph-name="arrow-down" unicode="&#58940;" d="M832 555.008l-320-312-320 312q-8.992 8.992-20.992 8.992t-20.992-8.992-8.992-20.992 8-20l340.992-332q8.992-8.992 22.016-8.992t22.016 8.992l340.992 331.008q8 8.992 8 21.504t-8.992 20.992-20.992 8.512-20.992-8.992z"  horiz-adv-x="1024" />

    
    <glyph glyph-name="bell" unicode="&#58943;" d="M512 832q27.008-0.992 44.992-19.008T576 768v-64h-128V768q0.992 27.008 19.008 44.992T512 832zM256 128h512V448q-3.008 108.992-75.008 180.992T512 704q-108.992-3.008-180.992-75.008T256 448v-320z m256 640q136-3.008 226.496-93.504T832 448v-384H192V448q3.008 136 93.504 226.496T512 768zM96 128h832q32 0 32-32t-32-32H96q-32 0-32 32t32 32z m352-128h128q-0.992-27.008-19.008-44.992T512-63.008t-44.992 18.016T448 0z"  horiz-adv-x="1024" />

    
    <glyph glyph-name="chat-dot-round" unicode="&#58961;" d="M175.008 40l135.008 44.992 24-11.008q82.016-42.016 178.016-42.016 163.008 4.992 271.488 106.496t112.512 245.504q-4 144-112.512 245.504t-271.488 106.496q-163.008-4.992-271.488-106.496t-112.512-245.504q0-52 18.016-103.008t52.992-96l22.016-28.992z m-46.016-82.016q-19.008-6.016-32.512 8.512T89.984 0l58.016 146.016q-40 52.992-62.016 113.504t-22.016 124.512q4 164.992 128 287.488t320 128.512q196-6.016 320-128.512t128-287.488q-4-164.992-128-287.488t-320-128.512q-108.992 0-207.008 48zM512 332.992q-14.016 0-25.504 6.496t-18.496 19.008-7.008 25.504 7.008 25.504 18.496 19.008 25.504 6.496q22.016 0 36.512-14.496T563.008 384t-14.496-36.512-36.512-14.496z m192 0q-14.016 0-25.504 6.496t-18.496 19.008-7.008 25.504 7.008 25.504 18.496 19.008 25.504 6.496q22.016 0 36.512-14.496T755.008 384t-14.496-36.512-36.512-14.496z m-384 0q-14.016 0-25.504 6.496t-18.496 19.008T268.992 384t7.008 25.504 18.496 19.008 25.504 6.496q22.016 0 36.512-14.496T371.008 384t-14.496-36.512-36.512-14.496z"  horiz-adv-x="1024" />

    
    <glyph glyph-name="check" unicode="&#58962;" d="M407.008 188.992L196 400q-12.992 12.992-31.008 8t-22.496-22.496 8.512-31.488l256-256 512 512q8.992 10.016 8.512 23.008t-10.016 22.496-22.016 9.504-22.496-8.992z"  horiz-adv-x="1024" />

    
    <glyph glyph-name="circle-check" unicode="&#58968;" d="M512 0q163.008 4 271.488 112.512T896 384q-4 163.008-112.512 271.488T512 768q-163.008-4-271.488-112.512T128 384q4-163.008 112.512-271.488T512 0z m0-64q-190.016 4.992-316.512 131.488T64 384q4.992 190.016 131.488 316.512T512 832q190.016-4.992 316.512-131.488T960 384q-4.992-190.016-131.488-316.512T512-64z m232.992 599.008Q755.008 544 768 544t22.496-9.504T800 512t-8.992-23.008l-288-288Q492.992 192 480 192t-23.008 8.992l-160 160Q288 371.008 288 384t9.504 22.496T320 416t23.008-8.992L480 268.992z"  horiz-adv-x="1024" />

    
    <glyph glyph-name="circle-close" unicode="&#58969;" d="M467.008 384l-91.008 90.016q-8.992 10.016-8.992 23.008t9.504 22.496 22.496 9.504 23.008-8.992l90.016-91.008 90.016 91.008q14.016 12.992 31.488 8t22.496-22.496-8-31.488l-91.008-90.016 91.008-90.016q12.992-14.016 8-31.488t-22.496-22.496-31.488 8l-90.016 91.008-90.016-91.008q-10.016-8.992-23.008-8.992t-22.496 9.504-9.504 22.496 8.992 23.008zM512 0q163.008 4 271.488 112.512T896 384q-4 163.008-112.512 271.488T512 768q-163.008-4-271.488-112.512T128 384q4-163.008 112.512-271.488T512 0z m0-64q-190.016 4.992-316.512 131.488T64 384q4.992 190.016 131.488 316.512T512 832q190.016-4.992 316.512-131.488T960 384q-4.992-190.016-131.488-316.512T512-64z"  horiz-adv-x="1024" />

    
    <glyph glyph-name="circle-plus-outline" unicode="&#58971;" d="M352 416h320q14.016 0 23.008-8.992T704 384t-8.992-23.008T672 352H352q-14.016 0-23.008 8.992T320 384t8.992 23.008T352 416z m128-192V544q0 14.016 8.992 23.008T512 576t23.008-8.992T544 544v-320q0-14.016-8.992-23.008T512 192t-23.008 8.992T480 224z m32-224q163.008 4 271.488 112.512T896 384q-4 163.008-112.512 271.488T512 768q-163.008-4-271.488-112.512T128 384q4-163.008 112.512-271.488T512 0z m0-64q-190.016 4.992-316.512 131.488T64 384q4.992 190.016 131.488 316.512T512 832q190.016-4.992 316.512-131.488T960 384q-4.992-190.016-131.488-316.512T512-64z"  horiz-adv-x="1024" />

    
    <glyph glyph-name="circle-plus" unicode="&#58972;" d="M512 832q190.016-4.992 316.512-131.488T960 384q-4.992-190.016-131.488-316.512T512-64q-190.016 4.992-316.512 131.488T64 384q4.992 190.016 131.488 316.512T512 832z m-37.984-410.016h-148q-16 0-27.008-11.008T288 383.968t11.008-27.008 27.008-11.008h148v-148q0-16 11.008-27.008t27.008-11.008 27.008 11.008 11.008 27.008v148h148q16 0 27.008 11.008t11.008 27.008-11.008 27.008-27.008 11.008h-148v148q0 16-11.008 27.008T512.032 608t-27.008-11.008-11.008-27.008v-148z"  horiz-adv-x="1024" />

    
    <glyph glyph-name="close" unicode="&#58974;" d="M764 680.992L512 428.992 260 680.992q-10.016 8.992-22.496 8.992t-22.016-9.504-9.504-22.016 8.992-22.496l252-252-252-252q-12.992-12.992-8.512-31.008t22.016-22.496 31.488 8.512l252 252 252-252q10.016-8.992 22.496-8.992t22.016 9.504 9.504 22.016-8.992 22.496L556.992 384l252 252q12.992 12.992 8.512 31.008t-22.496 22.496-31.008-8.512z"  horiz-adv-x="1024" />

    
    <glyph glyph-name="delete" unicode="&#59001;" d="M160 640H96q-14.016 0-23.008 8.992T64 672t8.992 23.008T96 704h256V800q0 14.016 8.992 23.008T384 832h256q14.016 0 23.008-8.992T672 800v-96h256q14.016 0 23.008-8.992T960 672t-8.992-23.008T928 640h-64v-672q0-14.016-8.992-23.008T832-64H192q-14.016 0-23.008 8.992T160-32V640z m448 64V768h-192v-64h192zM224 0h576V640H224v-640z m192 128q-14.016 0-23.008 8.992T384 160V480q0 14.016 8.992 23.008T416 512t23.008-8.992T448 480v-320q0-14.016-8.992-23.008T416 128z m192 0q-14.016 0-23.008 8.992T576 160V480q0 14.016 8.992 23.008T608 512t23.008-8.992T640 480v-320q0-14.016-8.992-23.008T608 128z"  horiz-adv-x="1024" />

    
    <glyph glyph-name="edit-outline" unicode="&#59014;" d="M832 384q0 14.016 8.992 23.008T864 416t23.008-8.992T896 384v-352q0-14.016-8.992-23.008T864 0H160q-14.016 0-23.008 8.992T128 32V736q0 14.016 8.992 23.008T160 768h352q14.016 0 23.008-8.992T544 736t-8.992-23.008T512 704H192v-640h640V384z m-361.984-42.016l52.992 7.008L847.008 673.984q12.992 12.992 8.512 30.496t-22.496 22.496-31.008-8L477.024 394.976zM892 764q28-28 28-67.488t-28-68.512L560.992 296.992q-8-8-19.008-10.016l-104.992-15.008q-16-2.016-27.008 9.504t-8.992 27.488L416 413.952q0.992 11.008 8.992 18.016L756.992 763.968q28.992 28 67.488 28t67.488-28z"  horiz-adv-x="1024" />

    
    <glyph glyph-name="error" unicode="&#59018;" d="M512 832q190.016-4.992 316.512-131.488T960 384q-4.992-190.016-131.488-316.512T512-64q-190.016 4.992-316.512 131.488T64 384q4.992 190.016 131.488 316.512T512 832z m0-394.016l-104 104q-12 12-27.488 12t-27.008-11.488-11.488-27.008 12-27.488l104-104-104-104q-12-12-12-27.488t11.488-27.008 27.008-11.488 27.488 12l104 104 104-104q16-15.008 36.992-9.504t26.496 26.496-9.504 36.992L565.984 384l104 104q12 12 12 27.488t-11.488 27.008-27.008 11.488-27.488-12z"  horiz-adv-x="1024" />

    
    <glyph glyph-name="folder-remove" unicode="&#59020;" d="M128 704v-640h768V576H485.984l-128 128H127.968zM96 768h288l128-128h416q14.016 0 23.008-8.992T960 608v-576q0-14.016-8.992-23.008T928 0H96q-14.016 0-23.008 8.992T64 32V736q0 14.016 8.992 23.008T96 768z m256-416h320v-64H352v64z"  horiz-adv-x="1024" />

    
    <glyph glyph-name="folder-add" unicode="&#59022;" d="M128 704v-640h768V576H485.984l-128 128H127.968zM96 768h288l128-128h416q14.016 0 23.008-8.992T960 608v-576q0-14.016-8.992-23.008T928 0H96q-14.016 0-23.008 8.992T64 32V736q0 14.016 8.992 23.008T96 768z m384-416v128h64v-128h128v-64h-128v-128h-64v128h-128v64h128z"  horiz-adv-x="1024" />

    
    <glyph glyph-name="info" unicode="&#59050;" d="M512 832q190.016-4.992 316.512-131.488T960 384q-4.992-190.016-131.488-316.512T512-64q-190.016 4.992-316.512 131.488T64 384q4.992 190.016 131.488 316.512T512 832z m67.008-275.008q26.016 0 43.008 15.488t16.992 41.504-16.992 41.504-42.496 15.488-42.496-15.488-16.992-41.504 16.992-41.504 42.016-15.488z m12-360q0 6.016 0.992 16t0 19.008l-52.992-60.992q-8-8.992-16.512-14.016t-14.496-3.008q-8.992 4-8 14.016l88 276.992q4.992 28-8.992 48t-44.992 24q-35.008-0.992-76.512-29.504t-72.512-72.512v-15.008q-0.992-10.016 0-19.008l52.992 60.992q8 8.992 16.512 14.016t13.504 3.008q10.016-4.992 7.008-16l-87.008-276q-7.008-24.992 7.008-44.512t48.992-26.496q50.016 0.992 84 28.992t63.008 72z"  horiz-adv-x="1024" />

    
    <glyph glyph-name="loading" unicode="&#59061;" d="M512 832q14.016 0 23.008-8.992T544 800v-192q0-14.016-8.992-23.008T512 576t-23.008 8.992T480 608V800q0 14.016 8.992 23.008T512 832z m0-640q14.016 0 23.008-8.992T544 160v-192q0-14.016-8.992-23.008T512-64t-23.008 8.992T480-32v192q0 14.016 8.992 23.008T512 192z m448 192q0-14.016-8.992-23.008T928 352h-192q-14.016 0-23.008 8.992T704 384t8.992 23.008T736 416h192q14.016 0 23.008-8.992T960 384z m-640 0q0-14.016-8.992-23.008T288 352H96q-14.016 0-23.008 8.992T64 384t8.992 23.008T96 416h192q14.016 0 23.008-8.992T320 384zM195.008 700.992q10.016 8.992 23.008 8.992t22.016-8.992l136-136q8.992-10.016 8.992-22.496t-9.504-22.016-22.016-9.504-22.496 8.992l-136 136q-8.992 8.992-8.992 22.016t8.992 23.008zM648 248q10.016 10.016 22.496 10.016t22.496-10.016l136-136q8.992-8.992 8.992-22.016t-9.504-22.496-22.496-9.504-22.016 8.992l-136 136q-10.016 10.016-10.016 22.496t10.016 22.496z m180.992 452.992q8.992-10.016 8.992-23.008t-8.992-22.016l-136-136q-10.016-8.992-22.496-8.992t-22.016 9.504-9.504 22.016 8.992 22.496l136 136q8.992 8.992 22.016 8.992t23.008-8.992zM376 248q10.016-10.016 10.016-22.496t-10.016-22.496l-136-136q-8.992-8.992-22.016-8.992t-22.496 9.504-9.504 22.496 8.992 22.016l136 136q10.016 10.016 22.496 10.016t22.496-10.016z"  horiz-adv-x="1024" />

    
    <glyph glyph-name="menu" unicode="&#59063;" d="M160 448q-14.016 0-23.008 8.992T128 480V736q0 14.016 8.992 23.008T160 768h256q14.016 0 23.008-8.992T448 736v-256q0-14.016-8.992-23.008T416 448H160z m448 0q-14.016 0-23.008 8.992T576 480V736q0 14.016 8.992 23.008T608 768h256q14.016 0 23.008-8.992T896 736v-256q0-14.016-8.992-23.008T864 448h-256zM160 0q-14.016 0-23.008 8.992T128 32v256q0 14.016 8.992 23.008T160 320h256q14.016 0 23.008-8.992T448 288v-256q0-14.016-8.992-23.008T416 0H160z m448 0q-14.016 0-23.008 8.992T576 32v256q0 14.016 8.992 23.008T608 320h256q14.016 0 23.008-8.992T896 288v-256q0-14.016-8.992-23.008T864 0h-256z"  horiz-adv-x="1024" />

    
    <glyph glyph-name="remove-outline" unicode="&#59114;" d="M352 416h320q14.016 0 23.008-8.992T704 384t-8.992-23.008T672 352H352q-14.016 0-23.008 8.992T320 384t8.992 23.008T352 416z m160-416q163.008 4 271.488 112.512T896 384q-4 163.008-112.512 271.488T512 768q-163.008-4-271.488-112.512T128 384q4-163.008 112.512-271.488T512 0z m0-64q-190.016 4.992-316.512 131.488T64 384q4.992 190.016 131.488 316.512T512 832q190.016-4.992 316.512-131.488T960 384q-4.992-190.016-131.488-316.512T512-64z"  horiz-adv-x="1024" />

    
    <glyph glyph-name="remove" unicode="&#59116;" d="M512 832q190.016-4.992 316.512-131.488T960 384q-4.992-190.016-131.488-316.512T512-64q-190.016 4.992-316.512 131.488T64 384q4.992 190.016 131.488 316.512T512 832zM288 384q0-16 11.008-27.008t27.008-11.008h372q16 0 27.008 11.008t11.008 27.008-11.008 27.008-27.008 11.008H326.016q-16 0-27.008-11.008T288 384z"  horiz-adv-x="1024" />

    
    <glyph glyph-name="refresh-right" unicode="&#59117;" d="M784.992 665.984V716q0 14.016 8.992 23.008t22.496 8.992 22.496-8.992 10.016-23.008v-148.992q-0.992-12.992-10.016-22.016t-22.016-10.016h-148.992q-14.016 0.992-23.008 10.016t-8.992 22.496 8.992 22.496 23.008 8.992h92.992q-78.016 82.016-183.488 99.488t-204.512-34.496q-98.016-54.016-140.992-152t-16.992-208q28.992-108 113.504-173.504t196.512-67.488q136 3.008 226.016 93.504t94.016 226.496h64q-4-163.008-112.512-271.488t-271.488-112.512q-163.008 4-271.488 112.512t-112.512 271.488q0.992 116 62.016 210.016t167.008 140.992q107.008 46.016 217.504 27.488t197.504-95.488z"  horiz-adv-x="1024" />

    
    <glyph glyph-name="success" unicode="&#59124;" d="M512 832q190.016-4.992 316.512-131.488T960 384q-4.992-190.016-131.488-316.512T512-64q-190.016 4.992-316.512 131.488T64 384q4.992 190.016 131.488 316.512T512 832z m-56-536l-99.008 99.008q-12 11.008-27.488 11.008t-27.008-11.488-11.488-26.496 11.008-27.008l127.008-127.008q11.008-11.008 27.008-11.008t27.008 11.008l263.008 263.008q15.008 15.008 9.504 36.512t-27.008 27.008-36.512-9.504z"  horiz-adv-x="1024" />

    
    <glyph glyph-name="video-play" unicode="&#59138;" d="M512 832q190.016-4.992 316.512-131.488T960 384q-4.992-190.016-131.488-316.512T512-64q-190.016 4.992-316.512 131.488T64 384q4.992 190.016 131.488 316.512T512 832z m0-832q163.008 4 271.488 112.512T896 384q-4 163.008-112.512 271.488T512 768q-163.008-4-271.488-112.512T128 384q4-163.008 112.512-271.488T512 0z m-48 248L668.992 384 464 520v-272z m11.008 341.984l248.992-166.016q20.992-15.008 20.992-40t-20.992-40l-248.992-166.016q-12-8-24.992-8.512t-24.512 6.016-18.496 17.504-7.008 24.992V549.952q0 14.016 7.008 24.992t18.496 17.504 24.512 6.016 24.992-8.512z"  horiz-adv-x="1024" />

    
    <glyph glyph-name="video-pause" unicode="&#59141;" d="M512 832q190.016-4.992 316.512-131.488T960 384q-4.992-190.016-131.488-316.512T512-64q-190.016 4.992-316.512 131.488T64 384q4.992 190.016 131.488 316.512T512 832z m0-832q163.008 4 271.488 112.512T896 384q-4 163.008-112.512 271.488T512 768q-163.008-4-271.488-112.512T128 384q4-163.008 112.512-271.488T512 0z m-96 544q32 0 32-32v-256q0-32-32-32t-32 32v256q0 32 32 32z m192 0q32 0 32-32v-256q0-32-32-32t-32 32v256q0 32 32 32z"  horiz-adv-x="1024" />

    
    <glyph glyph-name="warning-outline" unicode="&#59147;" d="M512 832q190.016-4.992 316.512-131.488T960 384q-4.992-190.016-131.488-316.512T512-64q-190.016 4.992-316.512 131.488T64 384q4.992 190.016 131.488 316.512T512 832z m0-832q163.008 4 271.488 112.512T896 384q-4 163.008-112.512 271.488T512 768q-163.008-4-271.488-112.512T128 384q4-163.008 112.512-271.488T512 0z m48 176q-0.992-20-14.496-33.504T512 128.992t-33.504 13.504-13.504 33.504 13.504 33.504T512 223.008t33.504-13.504 14.496-33.504zM512 640q14.016 0 23.008-8.992T544 608v-288q0-14.016-8.992-23.008T512 288t-23.008 8.992T480 320V608q0 14.016 8.992 23.008T512 640z"  horiz-adv-x="1024" />

    
    <glyph glyph-name="warning" unicode="&#59154;" d="M512 832q190.016-4.992 316.512-131.488T960 384q-4.992-190.016-131.488-316.512T512-64q-190.016 4.992-316.512 131.488T64 384q4.992 190.016 131.488 316.512T512 832z m0-192q-26.016 0-43.008-19.008T453.984 576l23.008-256q2.016-14.016 11.488-22.496t23.488-8.512 23.488 8.512 11.488 22.496l23.008 256q2.016 26.016-15.008 44.992T511.936 640z m0-512q22.016 0.992 36.512 15.008t14.496 36-14.496 36.512T512 230.016t-36.512-14.496-14.496-36.512 14.496-36T512 128z"  horiz-adv-x="1024" />

    
    <glyph glyph-name="plus" unicode="&#59157;" d="M480 416V768q0 14.016 8.992 23.008T512 800t23.008-8.992T544 768v-352h352q14.016 0 23.008-8.992T928 384t-8.992-23.008T896 352H544v-352q0-14.016-8.992-23.008T512-32t-23.008 8.992T480 0V352H128q-14.016 0-23.008 8.992T96 384t8.992 23.008T128 416h352z"  horiz-adv-x="1024" />

    
    <glyph glyph-name="top" unicode="&#59197;" d="M572 691.008v-600.992q0-12-8.512-20.512t-21.504-8.512-21.504 8.512-8.512 20.512V691.008l-220-234.016q-8-8.992-20.992-8.992t-21.504 9.504T240.96 480t8.992 23.008l271.008 288Q528.96 800 541.952 800t20.992-8.992l271.008-288q8.992-10.016 8.992-23.008t-8.512-22.496-20.992-9.504-21.504 8.992z"  horiz-adv-x="1024" />

    
    <glyph glyph-name="question" unicode="&#59213;" d="M512 832q190.016-4.992 316.512-131.488T960 384q-4.992-190.016-131.488-316.512T512-64q-190.016 4.992-316.512 131.488T64 384q4.992 190.016 131.488 316.512T512 832z m0-704q22.016 0.992 36.512 15.008t14.496 36-14.496 36.512T512 230.016t-36.512-14.496-14.496-36.512 14.496-36T512 128z m0 268.992q-16-0.992-27.008-11.488t-11.008-27.008 11.008-27.488T512 320q66.016 0.992 114.016 42.016t60 106.016q8.992 64.992-23.488 119.008T567.04 663.04q-63.008 20-120.992-3.488t-90.016-81.504l64.992-40.992q16.992 34.016 49.504 48.992t68.992 4.512 56-40.512 14.016-67.488-32.512-60.992-64.992-24.512z"  horiz-adv-x="1024" />

    
    <glyph glyph-name="warning-circle" unicode="&#58928;" d="M448 640.576C448 675.584 476.416 704 512 704a64 64 0 0 0 64-63.424v-257.184a63.584 63.584 0 0 0-64-63.424 64 64 0 0 0-64 63.424V640.576zM512 128a64 64 0 1 1 0.032 127.968A64 64 0 0 1 512 128z"  horiz-adv-x="1024" />

    
    <glyph glyph-name="add-circle" unicode="&#58980;" d="M512 821.333333C270.933333 821.333333 74.666667 625.066667 74.666667 384S270.933333-53.333333 512-53.333333 949.333333 142.933333 949.333333 384 753.066667 821.333333 512 821.333333z m0-810.666666c-204.8 0-373.333333 168.533333-373.333333 373.333333S307.2 757.333333 512 757.333333 885.333333 588.8 885.333333 384 716.8 10.666667 512 10.666667zM682.666667 416h-138.666667V554.666667c0 17.066667-14.933333 32-32 32s-32-14.933333-32-32v-138.666667H341.333333c-17.066667 0-32-14.933333-32-32s14.933333-32 32-32h138.666667V213.333333c0-17.066667 14.933333-32 32-32s32 14.933333 32 32v138.666667H682.666667c17.066667 0 32 14.933333 32 32s-14.933333 32-32 32z"  horiz-adv-x="1024" />

    
    <glyph glyph-name="love-outline" unicode="&#58923;" d="M502.53824 102.93248000000006L810.04544 410.4192a176.47616 176.47616 0 1 1-249.56928 249.56928l-57.93792-57.91744-57.91744 57.91744A176.47616 176.47616 0 0 1 195.05152 410.4192l307.48672-307.48672z m28.9792-86.89664a40.96 40.96 0 0 0-57.93792 0L137.1136 352.50176c-100.90496 100.90496-100.90496 264.4992 0 365.42464 100.92544 100.90496 264.51968 100.90496 365.42464 0 100.92544 100.90496 264.51968 100.90496 365.42464 0 100.92544-100.92544 100.92544-264.51968 0-365.42464l-336.44544-336.4864z"  horiz-adv-x="1024" />

    
    <glyph glyph-name="un-subscribed" unicode="&#59180;" d="M405.077333 832a74.666667 74.666667 0 0 0 59.413334-29.44l39.317333-51.690667a10.666667 10.666667 0 0 1 8.490667-4.202666H746.666667a117.333333 117.333333 0 0 0 117.333333-117.333334l-0.021333 1.109334a160.064 160.064 0 0 0 101.205333-186.794667l-89.6-384A160 160 0 0 0 719.765333-64H304.213333a160 160 0 0 0-155.818666 123.648l-89.6 384A160.021333 160.021333 0 0 0 160 630.4V714.666667A117.333333 117.333333 0 0 0 277.333333 832z m404.266667-256H214.656a96 96 0 0 1-93.482667-117.824l89.6-384A96 96 0 0 1 304.213333 0H719.786667a96 96 0 0 1 93.482666 74.176l89.6 384A96 96 0 0 1 809.386667 576zM629.333333 448a32 32 0 0 0 0-64h-234.666666a32 32 0 0 0 0 64h234.666666zM405.077333 768H277.333333a53.333333 53.333333 0 0 1-53.333333-53.333333V640h574.933333l-0.682666 2.986667a53.376 53.376 0 0 1-48.085334 39.573333L746.666667 682.666667H512.298667a74.666667 74.666667 0 0 0-59.434667 29.44l-39.296 51.690666A10.666667 10.666667 0 0 1 405.077333 768z"  horiz-adv-x="1024" />

    
    <glyph glyph-name="love" unicode="&#59006;" d="M960.4 521.9c0-67.3-25.8-134.4-76.9-185.8L544-3.2999999999999545c-17.7-17.7-46.4-17.7-64.1 0L140.5 336.20000000000005C38 438.8 38 605 140.5 707.7c51.3 51.1 118.4 76.9 185.8 76.9 55.7 0 111.3-17.7 157.9-52.7 16.6-12.5 39-12.5 55.6 0 103 77.5 249.9 69.5 343.7-24.1 51.1-51.5 76.9-118.5 76.9-185.9z"  horiz-adv-x="1024" />

    
    <glyph glyph-name="subscribed" unicode="&#58986;" d="M781.93 538.35c-17.24 0-31.21 13.74-31.21 30.69v16.37c0 16.95 13.97 30.69 31.21 30.69s31.21-13.74 31.21-30.69v-16.37c0-16.94-13.97-30.69-31.21-30.69zM544.74 575.19H324.19c-17.24 0-31.21 13.74-31.21 30.69 0 16.95 13.97 30.69 31.21 30.69h220.55c17.24 0 31.21-13.74 31.21-30.69 0-16.95-13.97-30.69-31.21-30.69zM94.21 547.8199999999999c-5.81 0-11.68 1.59-16.91 4.92-14.48 9.2-18.63 28.2-9.27 42.44l120.53 183.4c5.64 8.58 15.25 13.84 25.64 14.03 10.43 0.18 20.19-4.72 26.15-13.09l109.5-153.93c9.88-13.89 6.44-33.03-7.68-42.75-14.12-9.72-33.58-6.33-43.46 7.56l-82.9 116.53-95.34-145.07c-5.99-9.09-16.03-14.04-26.26-14.04zM781.94 553.55c-10.01 0-19.83 4.72-25.87 13.48L654.9 713.89l-85.57-123.21c-9.72-14-29.14-17.59-43.37-8.04-14.23 9.56-17.89 28.66-8.17 42.66l111.45 160.47c5.82 8.38 15.46 13.38 25.77 13.38h0.06c10.33-0.02 19.98-5.07 25.78-13.48l126.9-184.22c9.67-14.03 5.94-33.12-8.33-42.63a31.563 31.563 0 0 0-17.48-5.27zM659-32.289999999999964H131.64c-37.24 0-67.53 34.03-67.53 75.85v534.9c0 18.53 13.97 33.56 31.21 33.56s31.21-15.02 31.21-33.56v-534.91c0-5.25 3.08-8.73 5.11-8.73H659c17.24 0 31.21-15.02 31.21-33.56s-13.97-33.55-31.21-33.55zM110.52-21.950000000000045c-1.48 0-2.97 0.11-4.48 0.35-17.06 2.63-28.91 19.65-26.46 37.99l57.79 432.46c1.46 35.95 30.59 64.74 66.18 64.74h625.3c36.53 0 66.24-30.31 66.24-67.57 0-2.06-0.18-4.11-0.53-6.13l-11.17-64.6c-3.15-18.22-19.42-30.26-36.39-26.86-16.95 3.39-28.13 20.9-24.98 39.13l10.04 58.04c-0.68 0.43-1.75 0.87-3.22 0.87h-625.3c-2.05 0-3.32-0.85-3.83-1.35-0.03-1.3-0.13-2.59-0.3-3.88l-58.05-434.41c-2.22-16.72-15.57-28.78-30.84-28.78zM921.02 95.58000000000004H675c-18.2 0-32.95 14.75-32.95 32.95 0 18.2 14.75 32.95 32.95 32.95h246.02c18.2 0 32.95-14.75 32.95-32.95 0-18.2-14.75-32.95-32.95-32.95zM798.01-31.82000000000005c-18.2 0-32.95 14.75-32.95 32.95v254.8c0 18.2 14.75 32.95 32.95 32.95 18.2 0 32.95-14.75 32.95-32.95v-254.81c0-18.19-14.75-32.94-32.95-32.94z"  horiz-adv-x="1024" />

    
    <glyph glyph-name="more" unicode="&#59017;" d="M512 737.28m0 92.16a92.16 92.16 0 1 1 0-184.32 92.16 92.16 0 1 1 0 184.32ZM512 384m0 92.16a92.16 92.16 0 1 1 0-184.32 92.16 92.16 0 1 1 0 184.32ZM512 30.720000000000027m0 92.16a92.16 92.16 0 1 1 0-184.32 92.16 92.16 0 1 1 0 184.32Z"  horiz-adv-x="1024" />

    
    <glyph glyph-name="bulb" unicode="&#58883;" d="M515.107 680.105c-151.36 0-274.439-123.083-274.439-274.439 0-105.339 59.879-200.703 154.126-246.718l0-118.645c0-33.266 19.964-62.1 48.795-74.849l0-25.504c0-28.832 23.283-52.117 52.115-52.117l39.92 0c28.829 0 52.117 23.284 52.117 52.117l0 25.5c28.828 12.751 48.789 41.584 48.789 74.852l0 118.645c93.695 46.015 154.127 141.378 154.127 246.718-1.108 151.359-124.19 274.443-275.548 274.443l0 0zM535.061-73.361l-39.918 0c-7.203 0-13.308 6.102-13.308 13.307l0 18.299 66.538 0 0-18.299c0-7.204-6.102-13.307-13.312-13.307l0 0zM553.362-2.945l-76.512 0c-23.836 0-43.247 19.403-43.247 43.247l0 46.569 163.561 0 0-46.569c-0.557-23.843-19.964-43.247-43.803-43.247l0 0zM515.107 279.81l-41.584 75.954 82.609 0-41.026-75.954zM608.25 189.44l-11.641-4.99 0-58.772-62.098 0 0 114.211c3.328 2.221 5.548 5.545 7.763 8.869l56.551 104.234c4.989 8.316 4.434 18.849-0.553 27.166-5.542 8.871-15.526 14.419-26.612 14.419l-113.657 0c-11.091 0-21.068-5.541-26.611-14.419-4.991-8.316-5.547-18.294-0.554-27.166l57.108-104.786c2.214-3.322 4.434-6.65 7.759-8.871l0-113.657-62.096 0 0 58.772-11.643 4.99c-86.487 37.141-141.93 122.527-141.93 216.222 0 129.738 105.894 235.63 235.63 235.63 129.733 0 235.632-105.894 235.632-235.63-0.553-93.695-56.551-178.528-143.042-216.222l0 0zM47.12 460.507l102.928 0 0-39.75-102.928 0 0 39.75zM254.01 649.982l-72.78 72.78 28.112 28.105 72.78-72.78-28.112-28.105zM742.348 678.086l72.78 72.78 28.106-28.105-72.779-72.78-28.107 28.105zM873.369 460.507l102.927 0 0-39.75-102.927 0 0 39.75zM491.831 856.237l39.75 0 0-102.927-39.75 0 0 102.927zM491.831 856.237z"  horiz-adv-x="1024" />

    
    <glyph glyph-name="about" unicode="&#58888;" d="M510.281869 829.485097c-245.173932 0-444.629613-199.462844-444.629613-444.611194 0-245.184165 199.456704-444.641893 444.629613-444.641893 245.167792 0 444.623473 199.491497 444.623473 444.641893C954.905342 630.022253 755.450684 829.485097 510.281869 829.485097zM510.281869-18.725224000000026c-222.541469 0-403.585825 181.046403-403.585825 403.598104 0 222.517933 181.044356 403.568429 403.585825 403.568429 222.537376 0 403.580708-181.050496 403.580708-403.568429C913.862577 162.35187699999994 732.819245-18.725224000000026 510.281869-18.725224000000026zM530.568914 447.396889c0 39.662325-40.539298 39.825031-40.539298 0L490.029616 122.56163900000001c0-39.33896 41.371246-39.314401 40.539298 0L530.568914 447.396889zM489.75844 542.1867649999999l41.042765 0 0 68.403926L489.75844 610.590692 489.75844 542.1867649999999z"  horiz-adv-x="1024" />

    
    <glyph glyph-name="order" unicode="&#58958;" d="M344.902796 398.849196M758.05244 844.954417L265.950629 844.954417c-38.438451 0-75.217099-31.162744-75.217099-69.612451L190.733531 108.409314c0-38.445614 36.778648-75.233472 75.217099-75.233472l293.177226 0 73.937966 0 195.10356 211.680097 5.096065 12.300141 0 77.494978L833.265446 775.341966C833.265446 813.791673 796.490891 844.954417 758.05244 844.954417L758.05244 844.954417zM618.859261 102.51814100000001L618.859261 230.23084700000004c0 19.222807 15.57779 34.80469 34.792411 34.80469L771.187599 265.035538 618.859261 102.51814100000001 618.859261 102.51814100000001zM784.423041 313.886129L653.651672 313.886129c-38.434358 0-86.448908-31.162744-86.448908-69.608358l0-162.246221L274.375509 82.03155100000004c-19.218714 0-34.800597 15.584953-34.800597 34.80469L239.574912 761.299135c0 19.222807 15.581883 34.808784 34.800597 34.808784L749.626537 796.107919c19.218714 0 34.796504-15.585977 34.796504-34.808784L784.423041 313.886129 784.423041 313.886129zM318.147432 610.289839l387.708206 0 0 46.044686L318.147432 656.334525 318.147432 610.289839 318.147432 610.289839zM318.147432 505.872698l387.708206 0 0 46.040592L318.147432 551.9132910000001 318.147432 505.872698 318.147432 505.872698zM318.147432 401.455557l178.910763 0 0 46.041616L318.147432 447.497173 318.147432 401.455557 318.147432 401.455557zM318.147432 297.03739299999995l178.910763 0 0 46.040592L318.147432 343.077985 318.147432 297.03739299999995 318.147432 297.03739299999995zM318.147432 297.03739299999995"  horiz-adv-x="1024" />

    
    <glyph glyph-name="message" unicode="&#58927;" d="M957.638 734.441l-862.249 0c-32.454 0-58.846-26.391-58.846-58.846l0-603.15c0-32.454 26.391-58.846 58.846-58.846l862.249 0c32.441 0 58.832 26.391 58.832 58.846l0 603.15c0 32.454-26.391 58.846-58.832 58.846zM975.278 683.991c1.229-2.554 1.966-5.379 1.966-8.397l0-542.406-344.829 264.929 342.863 285.873zM927.464 695.2139999999999l-405.135-337.811-430.421 337.456c1.133 0.205 2.281 0.355 3.482 0.355l832.075 0zM408.774 396.575l-333.005-262.594 0 523.674 333.005-261.079zM957.638 52.825000000000045l-862.249 0c-10.814 0-19.62 8.793-19.62 19.62l0 11.591 364.763 287.648 81.852-64.185 0.546-0.655 78.589 65.522 375.712-288.659 0-11.278c0.014-10.814-8.793-19.606-19.593-19.606z"  horiz-adv-x="1024" />

    
    <glyph glyph-name="bell-2" unicode="&#59146;" d="M768 734.72c-122.88 69.12-279.04 28.16-348.16-92.16l-102.4-171.52L128 348.15999999999997l199.68-112.64c-35.84-58.88-15.36-135.68 46.08-168.96 61.44-33.28 138.24-12.8 174.08 46.08l199.68-112.64 12.8 222.72 102.4 171.52C931.84 514.56 890.88 665.6 768 734.72zM399.36 110.08000000000004c-35.84 20.48-48.64 66.56-28.16 102.4l133.12-74.24c-23.04-35.84-69.12-48.64-104.96-28.16zM819.2 419.84l-102.4-171.52-10.24-166.4-486.4 273.92 143.36 92.16 102.4 171.52c56.32 94.72 181.76 128 279.04 71.68 94.72-53.76 130.56-176.64 74.24-271.36z"  horiz-adv-x="1024" />

    
    <glyph glyph-name="cart" unicode="&#58914;" d="M471.20896 2.872319999999945c-1.4336-44.3648-34.95424-77.88032-79.31904-79.31392-44.34944-1.4336-77.95712 37.10976-79.31904 79.31392-1.4336 44.34944 37.11488 77.95712 79.31904 79.31904 44.34944 1.4336 77.952-37.11488 79.31904-79.31904 1.06496-32.93184 52.26496-33.03424 51.2 0-2.3552 72.69888-57.82016 128.16896-130.51904 130.51904-72.66304 2.35008-128.2816-61.35296-130.51904-130.51904-2.35008-72.65792 61.35808-128.2816 130.51904-130.51392 72.65792-2.35008 128.2816 61.35296 130.51904 130.51392 1.06496 33.03424-50.13504 32.92672-51.2 0zM909.33248 2.872319999999945c-1.4336-44.3648-34.95424-77.88032-79.31904-79.31392-44.34432-1.4336-77.95712 37.10976-79.31904 79.31392-1.4336 44.34432 37.11488 77.95712 79.31904 79.31904 44.34944 1.4336 77.95712-37.10976 79.31904-79.31904 1.06496-32.93184 52.27008-33.03424 51.2 0-2.35008 72.69888-57.82016 128.16896-130.51904 130.51904-72.65792 2.35008-128.28672-61.35808-130.51904-130.51904-2.35008-72.65792 61.3632-128.2816 130.51904-130.51392 72.65792-2.35008 128.28672 61.35296 130.51904 130.51392 1.07008 33.03424-50.12992 32.92672-51.2 0zM864.70144 223.04768H430.86336c-34.97984 0-80.0256-3.97312-101.05856 29.7728-19.28704 30.9504-26.3424 71.63392-34.46784 106.78272-23.79264 102.96832-42.55744 207.13984-62.68928 310.8608-13.58848 70.016-17.2288 155.96544-80.4864 200.6784C130.48832 886.46144 101.91872 892.45696 75.78624 892.55424c-7.35232 0.0256-14.6688-0.91648-21.92896-2.01728C65.71008 892.33408 52.53632 891.6736 48.33792 891.8528 42.86976 892.09344 37.4016 892.32896 31.92832 892.55936c-33.024 1.408-32.89088-49.79712 0-51.2 11.776-0.50176 23.8592-2.11456 35.53792-0.18432-6.62016-1.09056-1.46432-0.21504 3.44064 0.05632 6.6304 0.36864 13.26592 0 19.8656-0.65024 42.56768-4.18304 63.73376-41.48224 71.74656-79.5136 21.02784-99.79392 38.97856-200.23808 59.0848-300.22144 9.23648-45.93664 18.61632-91.88864 29.70112-137.41568 8.84224-36.30592 18.67264-76.8768 41.56928-107.04896 28.5696-37.65248 74.19392-43.51488 118.60992-44.47744 35.23072-0.75776 70.54848-0.0512 105.78432-0.0512h347.42784c33.01888-0.00512 33.01888 51.19488 0.00512 51.19488zM388.57728 723.6608h533.45792c19.92704 0 13.20448-14.16192 9.56416-26.72128l-26.99776-93.1328-60.33408-208.128c-3.67616-12.66688-4.13696-35.7376-19.38432-35.7376H286.99648c-33.01888 0-33.01888-51.2 0-51.2H823.84896c8.2944 0 16.31744 0.96256 24.32 3.40992 27.30496 8.34048 34.46784 31.9744 41.32352 55.62368l16.41984 56.64768 65.19296 224.8704 15.42656 53.1968c11.20256 38.63552-29.97248 72.3712-64.49664 72.3712H388.57728c-33.01888 0-33.01888-51.2 0-51.2z"  horiz-adv-x="1024" />

    
    <glyph glyph-name="invoice" unicode="&#58994;" d="M854.15 96.71000000000004H169.27c-42.59 0-77.23 34.65-77.23 77.23V597.9300000000001c0 42.59 34.65 77.23 77.23 77.23h684.88c42.59 0 77.23-34.65 77.23-77.23v-423.99c0-42.59-34.64-77.23-77.23-77.23zM169.27 623.6700000000001c-14.2 0-25.74-11.55-25.74-25.74v-423.99c0-14.19 11.55-25.74 25.74-25.74h684.88c14.19 0 25.74 11.55 25.74 25.74V597.9300000000001c0 14.2-11.55 25.74-25.74 25.74H169.27zM231.01 420.12h345.17v-54.43H231.01zM231.01 288.45000000000005h345.17v-54.43H231.01zM404.67 370.57000000000005L238.61 516.38l33.98 38.69 129.93-114.09 113.87 113.01 36.27-36.54zM377.85 405.78h51.49v-292.39h-51.49zM681.49 649.42h51.49V530.5h-51.49zM681.49 500.62h51.49v-106.05h-51.49zM681.49 364.71000000000004h51.49v-106.05h-51.49zM681.49 228.78999999999996h51.49v-106.05h-51.49z"  horiz-adv-x="1024" />

    
    <glyph glyph-name="blacklist" unicode="&#59170;" d="M492.202667 738.235733c-184.832 0-334.711467-149.845333-334.711467-334.711466v-233.984c0-38.570667 8.430933-69.154133 22.8352-92.3648l3.4816-5.3248c7.031467-10.103467 14.165333-17.1008 20.309333-21.435734l0.853334-0.580266-1.9456 1.809066c28.4672-28.3648 73.864533-29.730133 104.0384-4.096l4.4032 4.061867a34.338133 34.338133 0 0 0 48.298666 0c28.4672-28.330667 73.8304-29.696 104.004267-4.061867l4.437333 4.061867c12.288 12.219733 31.6416 13.175467 45.056 2.833067l3.242667-2.833067c28.4672-28.330667 73.8304-29.696 104.004267-4.061867l4.437333 4.061867c12.253867 12.219733 31.6416 13.175467 45.056 2.833067l7.611733-6.894934a77.038933 77.038933 0 0 1 99.6352 0l2.833067 2.6624-1.399467-1.058133c7.2704 4.983467 16.759467 14.5408 25.8048 29.457067 12.970667 21.469867 21.128533 48.366933 22.493867 80.9984l0.2048 9.9328c-0.136533 14.165333-0.2048 42.325333-0.238933 105.130666v128.955734c0 184.797867-149.9136 334.609067-334.7456 334.609066z m0-42.666666a292.0448 292.0448 0 0 0 291.9424-283.204267l0.1024-8.738133 0.273066-234.2912c0-29.115733-6.280533-51.712-16.520533-68.608-5.700267-9.386667-10.922667-14.677333-13.4144-16.384l-3.003733-2.4576a34.338133 34.338133 0 0 0-48.264534 0 77.0048 77.0048 0 0 1-108.475733 0c-12.288-12.219733-31.709867-13.175467-45.056-2.833067l-3.208533 2.798933a77.0048 77.0048 0 0 1-108.475734 0 34.304 34.304 0 0 0-48.264533 0 77.0048 77.0048 0 0 1-108.475733 0 34.304 34.304 0 0 0-48.2304 0l-4.096 3.1744c-2.116267 1.297067-6.997333 5.870933-12.458667 14.677334-10.1376 16.2816-16.384 39.082667-16.384 69.8368v233.984a292.0448 292.0448 0 0 0 292.010667 292.0448zM281.463467 541.832533a15.0528 15.0528 0 0 0-15.837867 23.6544c37.956267 50.005333 78.6432 77.789867 80.349867 78.916267a15.0528 15.0528 0 0 0 16.861866-24.917333c-0.682667-0.477867-38.536533-26.624-73.216-72.226134a15.325867 15.325867 0 0 0-8.157866-5.4272z m-31.914667-50.3808a14.472533 14.472533 0 0 0-11.093333 1.536 15.121067 15.121067 0 0 0-5.768534 20.548267l4.642134 8.192a15.121067 15.121067 0 0 0 26.3168-14.813867l-4.642134-8.192a14.779733 14.779733 0 0 0-9.454933-7.2704zM497.732267 321.46773299999995c-28.330667 0-41.233067-29.149867-46.967467-49.220266-13.5168-46.6944 11.1616-28.4672 48.503467-28.4672 38.980267 0 58.333867-22.869333 45.602133 26.3168-5.256533 20.411733-17.885867 51.370667-47.138133 51.370666zM431.9232 493.1584c-15.6672 19.012267-23.074133-34.747733-71.406933-56.5248-73.216-33.006933-93.661867-40.004267-81.476267-69.9392 13.277867-32.597333 89.736533-34.4064 129.6384 5.597867 34.577067 37.341867 41.813333 98.235733 23.210667 120.866133z m203.264-56.593067c-48.3328 21.742933-55.637333 75.537067-71.406933 56.5248-18.568533-22.6304-11.3664-83.5584 23.210666-120.866133 39.936-40.004267 116.394667-38.229333 129.6384-5.597867 12.219733 29.934933-8.226133 37.000533-81.442133 69.9392z"  horiz-adv-x="1024" />

    
    <glyph glyph-name="ticket" unicode="&#58889;" d="M759.81 123.63H264.19C207.2 123.63 160.83 170 160.83 227v67.08c-0.03 22.01 14.86 41.27 36.22 46.8 17.49 4.57 29.74 20.43 29.74 38.55 0 18.14-12.25 33.99-29.78 38.57-21.32 5.51-36.21 24.77-36.18 46.81v76.2c0 56.99 46.36 103.35 103.36 103.35H759.8c56.99 0 103.36-46.36 103.36-103.35v-76.23c0.03-22.01-14.85-41.27-36.21-46.8-17.54-4.55-29.8-20.41-29.8-38.55 0-18.14 12.27-33.99 29.83-38.55 21.33-5.53 36.22-24.78 36.18-46.82V227c0-57-46.36-103.37-103.35-103.37zM264.19 602.85c-34.1 0-61.84-27.74-61.84-61.84v-76.23a6.809 6.809 0 0 1 5.09-6.61c35.85-9.35 60.86-41.73 60.86-78.74 0-37-25.01-69.38-60.81-78.73-3.06-0.8-5.16-3.5-5.15-6.59V227c0-34.11 27.74-61.85 61.84-61.85h495.61c34.1 0 61.84 27.74 61.84 61.85v67.08a6.809 6.809 0 0 1-5.09 6.61c-35.89 9.32-60.93 41.7-60.93 78.74 0 37.05 25.05 69.43 60.91 78.74a6.798 6.798 0 0 1 5.11 6.58v76.26c0 34.09-27.74 61.84-61.84 61.84h-495.6zM480.89 437.43c0 15.21 12.33 27.54 27.53 27.54h93.62c15.2 0 27.53-12.33 27.53-27.54 0-15.2-12.33-27.53-27.53-27.53h-93.62c-15.2 0-27.53 12.33-27.53 27.53zM480.89 297.01c0 15.21 12.33 27.53 27.53 27.53H657.1c9.84 0 18.93-5.25 23.85-13.77a27.52 27.52 0 0 0 0-27.53 27.54 27.54 0 0 0-23.85-13.77H508.42c-15.2 0-27.53 12.33-27.53 27.54zM369 216.69000000000005c-11.47 0-20.76 9.3-20.76 20.76V511.61c0 11.46 9.29 20.76 20.76 20.76s20.76-9.3 20.76-20.76v-274.16c-0.01-11.47-9.3-20.76-20.76-20.76z"  horiz-adv-x="1024" />

    
    <glyph glyph-name="setting" unicode="&#58925;" d="M512 896l443.405474-256v-512L512-128 68.594526 128V640L512 896z m0-46.672842L109.015579 616.663579v-465.313684L512-81.31368399999997l402.970947 232.663579V616.663579L512 849.327158zM512 586.1052629999999c119.066947 0 215.578947-93.507368 215.578947-208.842105C727.578947 261.92842099999996 631.066947 168.42105300000003 512 168.42105300000003s-215.578947 93.507368-215.578947 208.842105C296.421053 492.597895 392.933053 586.1052629999999 512 586.1052629999999z m0-40.421052c-97.010526 0-175.157895-75.695158-175.157895-168.421053S414.989474 208.84210499999995 512 208.84210499999995s175.157895 75.695158 175.157895 168.421053S609.010526 545.684211 512 545.684211z"  horiz-adv-x="1024" />

    
    <glyph glyph-name="game" unicode="&#58919;" d="M618.66-63.41999999999996H405.54c-46.05 0-90.73 9.02-132.81 26.82-40.63 17.18-77.11 41.78-108.44 73.11s-55.92 67.81-73.11 108.44c-17.8 42.07-26.82 86.76-26.82 132.81s9.02 90.73 26.82 132.81c17.19 40.63 41.78 77.11 73.11 108.44s67.81 55.92 108.44 73.11c42.07 17.8 86.76 26.82 132.81 26.82h66.57l0.07 192.93c0 11.04 8.96 19.99 20 19.99h0.01c11.05 0 20-8.96 19.99-20.01l-0.07-212.93c0-11.04-8.96-19.99-20-19.99h-86.56c-166.07 0-301.18-135.11-301.18-301.17 0-166.07 135.11-301.18 301.18-301.18h213.13c166.07 0 301.18 135.11 301.18 301.18S784.75 578.94 618.68 578.94h-22.49c-11.05 0-20 8.95-20 20s8.95 20 20 20h22.49c46.05 0 90.73-9.02 132.81-26.82 40.63-17.18 77.11-41.78 108.44-73.11s55.92-67.81 73.11-108.44c17.8-42.07 26.82-86.76 26.82-132.81s-9.02-90.73-26.82-132.81c-17.18-40.63-41.78-77.11-73.11-108.44s-67.81-55.92-108.44-73.11c-42.09-17.79-86.78-26.82-132.83-26.82zM320.06 156.33000000000004c-70.41 0-127.7 57.29-127.7 127.7s57.29 127.7 127.7 127.7 127.7-57.29 127.7-127.7-57.28-127.7-127.7-127.7z m0 215.41c-48.36 0-87.7-39.34-87.7-87.7s39.34-87.7 87.7-87.7 87.7 39.34 87.7 87.7-39.34 87.7-87.7 87.7zM812.16 263.28999999999996H596.11c-11.05 0-20 8.95-20 20s8.95 20 20 20h216.05c11.05 0 20-8.95 20-20 0-11.04-8.95-20-20-20zM724.14 391.32v-216.05c0-11.05-8.95-20-20-20s-20 8.95-20 20V391.32c0 11.05 8.95 20 20 20 11.04 0 20-8.96 20-20z"  horiz-adv-x="1024" />

    
    <glyph glyph-name="headset" unicode="&#58890;" d="M862.272595 290.594657l-41.589211 0c0 208.754464-34.268478 428.440909-301.521265 428.440909-213.875089 0-322.31587-136.798643-322.31587-428.440909l-41.589211 0c0 312.108391 125.833917 470.03012 363.90508 470.03012C826.704518 760.623753 862.272595 499.349121 862.272595 290.594657zM224.122477 36.398234l-16.568351-3.849678c-56.153928-13.047154-106.165971 31.03176-124.684744 110.736057-18.507516 79.656201 6.927783 141.315516 63.081711 154.36267l16.576537 3.851725L224.122477 36.398234zM138.093125 256.34255199999996c-27.721365-18.498306-31.527041-64.72821-21.605064-107.428731 9.925047-42.716894 33.727149-82.550111 66.760496-86.914512L138.093125 256.34255199999996zM257.088286 9.131216999999992l-0.824785-0.191358c-31.746028-7.375991-63.578014 12.446473-70.954005 44.192501l-50.241264 216.235856c-7.375991 31.746028 12.455683 63.571874 44.202735 70.947865 32.571836 7.567349 64.403822-12.254092 71.779813-44.00012l50.241264-216.235856C308.665988 48.33305399999995 288.834314 16.50720799999999 257.088286 9.131216999999992zM187.794084 307.36971500000004c-14.303774-3.323699-22.720468-16.824177-19.589151-30.303166l50.241264-216.235856c3.131317-13.477966 16.638959-21.88545 30.116925-18.754133l0.824785 0.191358c13.477966 3.131317 21.895683 16.632819 18.764366 30.110785l-50.241264 216.235856C214.779691 302.09457199999997 201.27205 310.50205600000004 187.794084 307.36971500000004zM861.758895 304.01429399999995l16.521279-3.838422c55.965639-13.003152 81.316004-74.455759 62.869886-153.844877-18.456351-79.437214-68.300572-123.367749-124.266212-110.364597l-16.513092 3.836375L861.758895 304.01429399999995zM841.108576 65.316867c32.921807 4.350075 56.644091 44.050262 66.536392 86.62287 9.888208 42.557258 6.094812 88.632643-21.533432 107.068528L841.108576 65.316867zM723.463156 83.33626600000002l50.072419 215.510332c7.351432 31.639604 39.076994 51.395554 71.538313 43.852764 31.639604-7.351432 51.404764-39.070854 44.054355-70.710458l-50.072419-215.510332c-7.351432-31.639604-39.076994-51.395554-70.716598-44.044122l-0.822738 0.191358C735.876883 19.97826299999997 716.111724 51.69666199999995 723.463156 83.33626600000002zM806.561759 291.173848L756.48934 75.66351599999996c-3.121084-13.43294 5.26798-26.889417 18.700921-30.010501l0.822738-0.191358c13.43294-3.121084 26.895557 5.257747 30.016641 18.690688l50.072419 215.510332c3.121084 13.43294-5.26798 26.889417-19.523659 30.200836C823.144436 312.98562000000004 809.682843 304.60678900000005 806.561759 291.173848z"  horiz-adv-x="1024" />

    
    <glyph glyph-name="broadcast" unicode="&#59054;" d="M896 224a32 32 0 0 0-32 32V512a32 32 0 0 0 64 0v-256a32 32 0 0 0-32-32zM704 64a32 32 0 0 0-32 32v576a32 32 0 0 0 64 0v-576a32 32 0 0 0-32-32z m-192-128a32 32 0 0 0-32 32v832a32 32 0 0 0 64 0v-832a32 32 0 0 0-32-32z m-192 128a32 32 0 0 0-32 32v576a32 32 0 0 0 64 0v-576a32 32 0 0 0-32-32z m-192 160a32 32 0 0 0-32 32V512a32 32 0 0 0 64 0v-256a32 32 0 0 0-32-32z"  horiz-adv-x="1024" />

    
    <glyph glyph-name="music" unicode="&#58946;" d="M525.312 486.4c-78.0288 13.7216-150.7328-29.2864-162.6112-96.0512s40.96-132.096 119.808-145.8176 150.7328 29.2864 162.6112 96.0512-41.7792 132.7104-119.808 145.8176z m79.4624-138.8544c-7.7824-44.6464-59.392-72.704-115.0976-62.8736S395.264 339.14880000000005 403.2512 384s59.392 72.704 115.0976 62.8736 94.4128-54.0672 86.4256-98.7136zM901.12 514.048a413.9008 413.9008 0 1 0-327.68 274.432 266.24 266.24 0 0 0 5.3248 40.96A450.56 450.56 0 1 1 939.4176 527.36a264.192 264.192 0 0 0-38.2976-13.312zM703.2832 788.48a20.48 20.48 0 0 0 16.5888-23.7568l-71.0656-403.456a20.48 20.48 0 1 0-40.96 7.168l71.0656 403.456a20.48 20.48 0 0 0 24.3712 16.5888zM297.3696 265.01120000000003A163.84 163.84 0 0 0 286.72 322.55999999999995c0 6.7584-40.96 5.12-40.96 0a204.8 204.8 0 0 1 15.5648-78.2336zM450.56 158.72000000000003a163.84 163.84 0 0 0-134.144 70.0416l-35.6352-20.48A204.8 204.8 0 0 1 450.56 117.75999999999999c6.5536 0 3.8912 40.96 0 40.96zM920.1664 581.4272000000001a287.9488 287.9488 0 0 1-42.1888 3.8912 245.76 245.76 0 0 1-189.0304 160.768 286.72 286.72 0 0 1 3.8912 40.96h3.2768a286.72 286.72 0 0 0 225.28-204.8z"  horiz-adv-x="1024" />

    
    <glyph glyph-name="edit" unicode="&#59565;" d="M896 32a32 32 0 0 0 0-64H128a32 32 0 0 0 0 64z m-60.16 733.621333l15.093333-15.093333c45.866667-45.834667 45.866667-120.16 0-166.005333L418.794667 152.661333a160.192 160.192 0 0 0-78.122667-42.986666l-152.245333-34.197334c-23.84-5.365333-44.661333 16.853333-37.749334 40.288l43.338667 146.88a160.042667 160.042667 0 0 0 40.373333 67.925334l435.328 435.050666c45.866667 45.834667 120.245333 45.834667 166.112 0zM636.32 641.696L279.68 285.290667a96.021333 96.021333 0 0 1-24.213333-40.746667l-27.946667-94.656 99.093333 22.261333a96.117333 96.117333 0 0 1 46.869334 25.781334L726.933333 551.157333l-90.602666 90.538667z m78.698667 78.656l-33.397334-33.386667 90.602667-90.538666 33.386667 33.376a53.333333 53.333333 0 0 1 0 75.456l-15.093334 15.093333a53.408 53.408 0 0 1-75.498666 0z"  horiz-adv-x="1024" />

    
    <glyph glyph-name="calendar" unicode="&#59572;" d="M725.333333 725.333333h74.709334C864.853333 725.333333 917.333333 672.810667 917.333333 607.904V96.10666700000002C917.333333 31.242666999999983 864.832-21.33333300000004 800.042667-21.33333300000004H223.957333C159.146667-21.33333300000004 106.666667 31.189333000000033 106.666667 96.096V607.893333C106.666667 672.757333 159.168 725.333333 223.957333 725.333333H298.666667v32a32 32 0 0 0 64 0v-32h298.666666v32a32 32 0 0 0 64 0v-32z m0-64v-32a32 32 0 0 0-64 0v32H362.666667v-32a32 32 0 0 0-64 0v32h-74.709334A53.354667 53.354667 0 0 1 170.666667 607.904V96.10666700000002A53.301333 53.301333 0 0 1 223.957333 42.66666699999996h576.085334A53.354667 53.354667 0 0 1 853.333333 96.096V607.893333A53.301333 53.301333 0 0 1 800.042667 661.333333H725.333333z m-10.666666-224a32 32 0 0 0 0-64H309.333333a32 32 0 0 0 0 64h405.333334zM586.666667 277.33333300000004a32 32 0 0 0 0-64H309.333333a32 32 0 0 0 0 64h277.333334z"  horiz-adv-x="1024" />

    
    <glyph glyph-name="home" unicode="&#59578;" d="M155.584 553.44l312.874667 224.565333a74.666667 74.666667 0 0 0 87.082666 0l312.874667-224.565333A117.333333 117.333333 0 0 0 917.333333 458.133333V96c0-64.8-52.533333-117.333333-117.333333-117.333333H224c-64.8 0-117.333333 52.533333-117.333333 117.333333V458.122667a117.333333 117.333333 0 0 0 48.917333 95.317333z m37.322667-51.989333A53.333333 53.333333 0 0 1 170.666667 458.122667V96a53.333333 53.333333 0 0 1 53.333333-53.333333h576a53.333333 53.333333 0 0 1 53.333333 53.333333V458.122667a53.333333 53.333333 0 0 1-22.24 43.328L518.218667 726.016a10.666667 10.666667 0 0 1-12.437334 0L192.906667 501.44z"  horiz-adv-x="1024" />

    
    <glyph glyph-name="refesh" unicode="&#59579;" d="M822.496 422.848a32 32 0 0 1-31.392-55.776l97.450667-54.848c20.32-11.434667 45.653333 2.005333 47.594666 25.248 1.674667 20.16 2.517333 35.573333 2.517334 46.528C938.666667 619.637333 747.637333 810.666667 512 810.666667S85.333333 619.637333 85.333333 384s191.029333-426.666667 426.666667-426.666667c144.106667 0 276.053333 72.032 354.752 189.536a32 32 0 1 1-53.173333 35.616C746.645333 82.53866700000003 634.538667 21.33333300000004 512 21.33333300000004c-200.298667 0-362.666667 162.368-362.666667 362.666667s162.368 362.666667 362.666667 362.666667c197.098667 0 357.472-157.226667 362.538667-353.109334l-52.042667 29.290667z"  horiz-adv-x="1024" />

    
    <glyph glyph-name="search" unicode="&#59580;" d="M797.525333 143.73333300000002c62.069333 72.736 97.28 165.002667 97.28 262.186667C894.816 629.472 713.621333 810.666667 490.08 810.666667 266.538667 810.666667 85.333333 629.461333 85.333333 405.930667 85.333333 182.38933299999997 266.538667 1.1733329999999569 490.069333 1.1733329999999569a404.693333 404.693333 0 0 1 118.208 17.546667 32 32 0 0 1-18.666666 61.216 340.693333 340.693333 0 0 0-99.541334-14.762667C301.888 65.18399999999997 149.333333 217.73866699999996 149.333333 405.930667 149.333333 594.1120000000001 301.888 746.666667 490.069333 746.666667 678.261333 746.666667 830.826667 594.1120000000001 830.826667 405.930667c0-89.28-35.381333-173.696-97.141334-237.322667a36.992 36.992 0 0 1 0.384-51.925333l149.973334-149.973334a32 32 0 0 1 45.258666 45.248L797.525333 143.73333300000002z"  horiz-adv-x="1024" />

    
    <glyph glyph-name="follow" unicode="&#59582;" d="M512 810.666667c129.6 0 234.666667-105.066667 234.666667-234.666667 0-84.256-44.394667-158.133333-111.072-199.52a425.28 425.28 0 0 0 152.853333-83.466667 32 32 0 1 0-41.493333-48.736A361.045333 361.045333 0 0 1 512 330.66666699999996c-188.672 0-345.429333-144.672-361.344-331.413334a32 32 0 0 0-63.765333 5.429334c15.114667 177.322667 138.048 322.346667 301.546666 371.786666C321.76 417.834667 277.333333 491.733333 277.333333 576c0 129.6 105.066667 234.666667 234.666667 234.666667z m415.946667-627.381334l1.066666-1.013333a29.824 29.824 0 0 0 0-43.413333l-162.261333-152.96a31.925333 31.925333 0 0 0-22.762667-8.704 31.925333 31.925333 0 0 0-22.773333 8.704l-93.184 87.84a29.824 29.824 0 0 0 0 43.413333l1.077333 1.013333a32 32 0 0 0 43.904 0l70.976-66.901333 140.053334 132.021333a32 32 0 0 0 43.904 0zM512 746.666667c-94.261333 0-170.666667-76.405333-170.666667-170.666667s76.405333-170.666667 170.666667-170.666667 170.666667 76.405333 170.666667 170.666667-76.405333 170.666667-170.666667 170.666667z"  horiz-adv-x="1024" />

    
    <glyph glyph-name="hot" unicode="&#59593;" d="M423.477333-42.66666699999996S45.045333 40.57600000000002 214.186667 453.717333c0 0 38.4-45.909333 33.12-68 0 0 30.101333 104.277333 95.072 166.570667C398.165333 605.8133330000001 454.848 756.288 402.570667 810.666667c0 0 258.933333-54.378667 287.754666-326.378667 0 0 33.12 86.666667 101.12 95.232 0 0-20.906667-47.616 0-119.04 0 0 214.485333-367.146667-155.157333-491.242667 0 0 110.805333 125.813333-124.181333 341.717334 0 0-55.402667-115.626667-88.533334-156.373334-0.096-0.106667-92.522667-103.722667-0.096-197.248z"  horiz-adv-x="1024" />

    
    <glyph glyph-name="person" unicode="&#58892;" d="M93.7-20h503.6c14.2 0 25.6 11.5 25.6 25.6s-11.5 25.6-25.6 25.6H120c10.5 198 141.6 355 301.3 355 166.5 0 301.9-170.8 301.9-380.7 0-14.2 11.5-25.6 25.6-25.6 14.2 0 25.6 11.5 25.6 25.6 0 191.8-102.8 354.8-244.6 410.9 58 35.3 96.8 97.8 96.8 169.1 0 109.9-92.1 199.3-205.4 199.3s-205.4-89.4-205.4-199.3c0-71.2 38.7-133.8 96.7-169.1C170.8 360.29999999999995 68 197.39999999999998 68 5.600000000000023c0-14.2 11.5-25.6 25.7-25.6z m173.4 605.6c0 81.6 69.1 148.1 154.1 148.1s154.1-66.4 154.1-148.1-69.1-148.1-154.1-148.1-154.1 66.4-154.1 148.1zM955.3 75.89999999999998c0 164.9-87.1 305.4-208 356.8 48.2 31.7 79.9 85.3 79.9 145.9 0 97.2-81.4 176.2-181.4 176.2-14.2 0-25.6-11.5-25.6-25.6s11.5-25.6 25.6-25.6c71.8 0 130.2-56 130.2-124.9s-58.4-124.9-130.2-124.9c-14.2 0-25.6-11.5-25.6-25.6 0-14.2 11.5-25.6 25.6-25.6C788.2 402.5 904 256 904 75.89999999999998c0-14.2 11.5-25.6 25.6-25.6 14.2 0 25.7 11.5 25.7 25.6z"  horiz-adv-x="1024" />

    


  </font>
</defs>
</svg>
